<?xml version="1.0" standalone="no"?><!DOCTYPE svg PUBLIC "-//W3C//DTD SVG 1.1//EN" "http://www.w3.org/Graphics/SVG/1.1/DTD/svg11.dtd"><svg t="1669808630379" class="icon" viewBox="0 0 1024 1024" version="1.1" xmlns="http://www.w3.org/2000/svg" p-id="3920" xmlns:xlink="http://www.w3.org/1999/xlink" width="200" height="200"><path d="M1024 256v192a256 256 0 0 1-256 256h-128v256H0v-128l59.648-136.32a252.16 252.16 0 0 0 309.248-182.72l-124.16-31.04a124.16 124.16 0 0 1-240.96-60.16l40.96-163.84A256 256 0 0 1 293.056 64H640l128 192h256zM576 384a64 64 0 1 0 0-128 64 64 0 0 0 0 128z" fill="#212121" p-id="3921"></path></svg>